<?xml version="1.0" encoding="UTF-8"?>
<svg xmlns="http://www.w3.org/2000/svg" version="1.1" viewBox="0 0 841.89 595.28">
  <defs>
    <style>
      .cls-1 {
        fill: #fff;
      }
    </style>
  </defs>
  <!-- Generator: Adobe Illustrator 28.7.1, SVG Export Plug-In . SVG Version: 1.2.0 Build 142)  -->
  <g>
    <g id="Layer_1">
      <polygon class="cls-1" points="80.44 252.98 131.11 251.07 131.86 268.59 98.71 269.75 99.34 284.41 125.11 283.31 125.86 300.83 100.09 301.94 101.47 334.12 83.95 334.87 80.44 252.98"/>
      <polyline class="cls-1" points="161.97 344.99 148 343.36 155.57 261.75 173.04 263.37 165.46 344.99"/>
      <path class="cls-1" d="M241.05,302.73c2.68-1.3,5.1-2.93,7.25-4.88,2.15-1.96,3.97-4.18,5.48-6.68,1.51-2.5,2.64-5.18,3.4-8.06.76-2.87,1.05-5.88.87-9-.23-4.12-1.23-7.95-3-11.49-1.77-3.54-4.08-6.56-6.94-9.08-2.86-2.52-6.13-4.46-9.8-5.82-3.67-1.36-7.57-1.93-11.69-1.7l-28.39,1.59,4.58,81.84,17.51-.98-1.24-22.09,3.66-.2,14.86,21.44,20.37-1.14-16.94-23.74ZM239.83,279.9c-.57,1.52-1.37,2.87-2.42,4.04-1.04,1.17-2.29,2.12-3.74,2.85-1.45.73-3.02,1.14-4.7,1.24l-10.87.61-1.37-24.49,10.87-.61c1.68-.09,3.28.14,4.8.71,1.52.57,2.87,1.37,4.04,2.41,1.17,1.05,2.12,2.29,2.85,3.74.73,1.45,1.14,3.02,1.24,4.7.09,1.68-.14,3.28-.71,4.8Z"/>
      <path class="cls-1" d="M314.54,295.08c3.18,1.57,5.9,3.59,8.15,6.08,2.25,2.48,3.98,5.32,5.17,8.52,1.19,3.2,1.63,6.55,1.31,10.07-.31,3.44-1.27,6.6-2.85,9.47-1.59,2.88-3.66,5.37-6.2,7.47-2.55,2.1-5.47,3.71-8.78,4.82-3.3,1.11-6.79,1.58-10.45,1.41l-.92-.04c-4.8-.38-9.19-1.82-13.17-4.34-3.98-2.52-6.98-5.85-9-10l-4.12-7.65,16.65-7.6,3.99,7.88c1.4,2.67,3.75,4.15,7.02,4.46,1.22.13,2.37.04,3.46-.3,1.09-.33,2.05-.84,2.88-1.53.84-.69,1.52-1.5,2.06-2.43.54-.93.87-1.93,1-2.99.1-2.14-.61-4.12-2.13-5.95-1.6-1.76-3.59-2.69-5.95-2.8l-1.71-.2c-3.73-.33-7.17-1.29-10.31-2.89-3.14-1.6-5.84-3.64-8.09-6.12-2.26-2.48-3.98-5.31-5.17-8.5-1.19-3.19-1.63-6.5-1.32-9.93.24-3.51,1.19-6.73,2.86-9.68,1.67-2.94,3.81-5.46,6.44-7.56,2.62-2.1,5.66-3.66,9.11-4.68,3.45-1.02,7.08-1.41,10.9-1.15,4.73.37,9.08,1.82,13.05,4.34,3.97,2.52,6.97,5.85,9,10l-16.53,7.38c-1.41-2.67-3.75-4.15-7.02-4.46-2.44-.19-4.55.42-6.34,1.81-1.79,1.4-2.81,3.19-3.06,5.38-.05,1.06.09,2.1.43,3.1.33,1,.9,1.94,1.7,2.81,1.6,1.75,3.59,2.67,5.95,2.79l1.6.19c3.73.33,7.19,1.28,10.37,2.84Z"/>
      <polygon class="cls-1" points="410.56 253.72 409.43 271.22 384.72 269.63 380.58 333.92 363.08 332.8 367.22 268.5 342.51 266.91 343.64 249.4 410.56 253.72"/>
      <polygon class="cls-1" points="476.18 317.21 502.19 317.85 501.76 335.39 458.21 334.32 460.22 252.37 477.76 252.8 476.18 317.21"/>
      <path class="cls-1" d="M566.81,244.11l-15.17-1.65-31.02,81.48,18.57.3,6.22-15.95,24.3.39,5.47,16.14,19.99,1.72-28.36-82.44ZM552,290.85l6.11-15.95,5.47,16.14-11.58-.19Z"/>
      <path class="cls-1" d="M679.11,280.96c-2.4-4.85-5.54-9.05-9.44-12.6-3.9-3.55-8.38-6.26-13.45-8.14-5.07-1.88-10.43-2.67-16.08-2.38l-27.59,1.44,4.26,81.86,27.59-1.44c5.65-.29,10.9-1.64,15.75-4.03,4.85-2.39,9.03-5.54,12.54-9.43,3.51-3.89,6.2-8.38,8.08-13.45,1.88-5.07,2.67-10.43,2.38-16.08-.29-5.65-1.64-10.9-4.03-15.75ZM665.63,297.62c.17,3.21-.29,6.25-1.36,9.14-1.07,2.89-2.61,5.46-4.59,7.7-1.99,2.25-4.38,4.06-7.18,5.42-2.8,1.37-5.8,2.14-9.01,2.31l-10.08.52-2.44-46.83,10.07-.52c3.21-.17,6.27.29,9.2,1.36,2.93,1.07,5.49,2.62,7.7,4.65,2.21,2.03,4,4.44,5.37,7.24,1.37,2.8,2.14,5.8,2.31,9.01Z"/>
      <polygon class="cls-1" points="742.46 298.48 745.52 332.74 728.05 334.3 724.99 300.04 688.1 255.57 709.79 253.64 732.22 281.79 749.19 250.12 771.46 248.13 742.46 298.48"/>
    </g>
  </g>
</svg>